# xmcd
#
# Track frame offsets: 
#        150
#        29150
#        56142
#        87230
#        108337
#        127535
#        159307
#        190572
#        209750
#        235035
#        257125
#        281465
#        299635
#        320790
#
# Disc length: 4553 seconds
#
# Revision: 8
# Processed by: cddbd v1.5.2PL0 Copyright (c) Steve Scherf et al.
# Submitted via: ExactAudioCopy v1.3
#
DISCID=ce11c70e
DTITLE=Various Artist - Smooth Jazz Cafe 3
DYEAR=2001
DGENRE=Jazz
TTITLE0=Marc Jordan - This is How Men Cry-Charlie Parker Loves Me
TTITLE1=Jimmy Haslip - Los Feliz
TTITLE2=Kenny Loggins - Conviction of the Heart
TTITLE3=Peter White and Basia - Just Another Day
TTITLE4=Patrick Leonard - The Slough
TTITLE5=Ella Fitzgerald - Bewitched
TTITLE6=Chuck Mangione - Children of Sanchez
TTITLE7=Grover Washington Jr - Soulful Strut
TTITLE8=Anna Maria Jopek - Poranne Lzy
TTITLE9=Keiko Matsui - Night Hawk's Dream
TTITLE10=Sovory - Love is still Enough
TTITLE11=St. Germain - Rose Rouge
TTITLE12=Till Bronner - Have you Met Chet?
TTITLE13=Marc Antoine - Sunland
EXTD=
EXTT0=
EXTT1=
EXTT2=
EXTT3=
EXTT4=
EXTT5=
EXTT6=
EXTT7=
EXTT8=
EXTT9=
EXTT10=
EXTT11=
EXTT12=
EXTT13=
PLAYORDER=
